<?xml version="1.0" encoding="utf-8"?>
<!-- Generator: Adobe Illustrator 27.5.0, SVG Export Plug-In . SVG Version: 6.00 Build 0)  -->
<svg version="1.1" id="Capa_1" xmlns="http://www.w3.org/2000/svg" xmlns:xlink="http://www.w3.org/1999/xlink" x="0px" y="0px"
	 viewBox="0 0 42.3 41.3" style="enable-background:new 0 0 42.3 41.3;" xml:space="preserve">
<style type="text/css">
	.st0{opacity:0.34;fill:#FFFFFF;enable-background:new    ;}
	.st1{fill:#FFFFFF;}
</style>
<circle class="st0" cx="21.5" cy="21.1" r="20.4"/>
<g>
	<path class="st1" d="M25.1,21.2c2.9-1.9,3.7-5.8,1.8-8.8s-5.8-3.7-8.8-1.8s-3.7,5.8-1.8,8.8c0.5,0.7,1.1,1.4,1.8,1.8
		c-4.3,0.5-7.5,4.1-7.5,8.4c0,0.2,0,0.4,0,0.6l0.1,0.9h21.5l0.1-0.9c0-0.2,0-0.4,0-0.6C32.3,25.4,29.3,21.9,25.1,21.2z M17.1,15.9
		c0-2.5,2-4.5,4.5-4.5c2.5,0,4.5,2,4.5,4.5s-2,4.5-4.5,4.5C19.2,20.4,17.2,18.4,17.1,15.9C17.2,15.9,17.2,15.9,17.1,15.9L17.1,15.9z
		 M12.5,29.1c0.2-3.5,3.1-6.3,6.6-6.3h4.7c3.5,0,6.4,2.7,6.6,6.3H12.5z"/>
</g>
</svg>