<svg xmlns="http://www.w3.org/2000/svg" xmlns:xlink="http://www.w3.org/1999/xlink" width="45.045" height="42" viewBox="0 0 45.045 42">
  <defs>
    <linearGradient id="linear-gradient" y1="0.5" x2="1" y2="0.5" gradientUnits="objectBoundingBox">
      <stop offset="0.13" stop-color="#1c7cbf"/>
      <stop offset="0.53" stop-color="#7f5277"/>
      <stop offset="1" stop-color="#aa49cc"/>
    </linearGradient>
    <linearGradient id="linear-gradient-2" x1="0" y1="0.5" x2="1" y2="0.5" xlink:href="#linear-gradient"/>
    <linearGradient id="linear-gradient-5" x1="0" y1="0.5" x2="1" y2="0.5" xlink:href="#linear-gradient"/>
  </defs>
  <g id="icon_mda" transform="translate(22.523 21)">
    <g id="icon_mda-2" data-name="icon_mda" transform="translate(-22.523 -21)">
      <g id="Grupo_27" data-name="Grupo 27" transform="translate(22.2 4.727)">
        <g id="Grupo_26" data-name="Grupo 26">
          <path id="Trazado_109" data-name="Trazado 109" d="M36.81,12.614a1.935,1.935,0,1,1-1.92-1.93A1.908,1.908,0,0,1,36.81,12.614ZM34.895,13.64a1.042,1.042,0,0,0,1.037-1.051,1.057,1.057,0,0,0-1.062-1.032,1.038,1.038,0,0,0-1.03,1.057A1.02,1.02,0,0,0,34.895,13.64Z" transform="translate(-29.519 -7.101)" fill="url(#linear-gradient)"/>
          <g id="Grupo_25" data-name="Grupo 25">
            <path id="Trazado_110" data-name="Trazado 110" d="M38.553,12.041c0-.474-.171-.981.346-1.365A.786.786,0,0,0,39.075,9.5c-.253-.446-.506-.891-.77-1.331a.877.877,0,0,0-1.142-.465,1.167,1.167,0,0,1-1.535-.9.842.842,0,0,0-.944-.733c-.488,0-.977,0-1.466,0-.665,0-.9.175-1.059.814-.04.159-.062.394-.17.452-.408.219-.754.611-1.33.383-.537-.214-.861-.047-1.164.457-.239.4-.468.8-.7,1.207a.908.908,0,0,0,.2,1.381,1.155,1.155,0,0,1,0,1.6,1.117,1.117,0,0,0-.457.8c.008.02.015.041.023.062a1.009,1.009,0,0,0,.117,0,4.5,4.5,0,0,1,.845.01.255.255,0,0,1,.116-.268c.11-.09.2-.2.313-.293a.746.746,0,0,0,.239-.663c0-.284,0-.485-.011-.747a1.121,1.121,0,0,0-.341-.909c-.423-.387-.3-.589-.143-.876.063-.112.155-.357.217-.5a.653.653,0,0,1,.387-.355c.2-.1.531.088.807.108a.94.94,0,0,0,.464-.1c.234-.115.74-.415.963-.554.4-.25.372-.292.409-.736.028-.337.2-.433.52-.408a7.677,7.677,0,0,0,1,0,.3.3,0,0,1,.361.292c.016.117.063.23.082.348.048.284.225.413.474.571s.586.274.765.382a.882.882,0,0,0,.982.091c.251-.115.368-.029.541.2.245.327.3.443.493.73a.59.59,0,0,1-.04.644,1.067,1.067,0,0,0-.579,1.093c0,.047.07.823.077.868.047.295.052.476.537.81a.25.25,0,0,1,.066.394c-.215.344-.4.706-.626,1.042a.437.437,0,0,1-.333.138c-.162-.006-.322-.116-.482-.116a.961.961,0,0,0-.6.11,5.553,5.553,0,0,0-.744.419c-.3.212-.467.315-.545.639-.16.675-.009.581-.761.589-.263,0-.527-.015-.787,0a.546.546,0,0,1-.137-.008c.034.1.068.194.1.294a.594.594,0,0,0,.357.343,4.46,4.46,0,0,1,.72.267h.164c.688,0,.933-.187,1.109-.863.039-.147.058-.37.156-.42.419-.212.765-.634,1.358-.374a.826.826,0,0,0,1.136-.451c.248-.422.492-.845.735-1.269a.875.875,0,0,0-.166-1.274C38.755,12.318,38.554,12.177,38.553,12.041Z" transform="translate(-28.542 -6.077)" fill="url(#linear-gradient-2)"/>
          </g>
        </g>
      </g>
      <path id="Trazado_111" data-name="Trazado 111" d="M13.58,5.6a1.6,1.6,0,0,0,.3-.1l1.951,3.543c-.013.015-.023.031-.036.046A5.945,5.945,0,0,1,17.252,8.5a1.572,1.572,0,0,0-1.038.215L14.292,5.229A1.6,1.6,0,0,0,14.8,3.844l8.3-1.723a1.569,1.569,0,0,0,.247.453L18.3,8.332a6.443,6.443,0,0,1,.674-.02l4.734-5.4a1.595,1.595,0,1,0-.7-1.274L14.666,3.371A1.6,1.6,0,1,0,13.58,5.6Zm10.8-5a1.019,1.019,0,1,1-.763,1.223A1.02,1.02,0,0,1,24.377.6Z" transform="translate(-2.582 0)" fill="url(#linear-gradient-2)"/>
      <g id="Grupo_29" data-name="Grupo 29" transform="translate(6.778 8.308)">
        <g id="Grupo_28" data-name="Grupo 28">
          <path id="Trazado_112" data-name="Trazado 112" d="M8.714,19.669a4.721,4.721,0,0,1,3.831-4.636.607.607,0,0,0,.5-.44,6.1,6.1,0,0,1,5.9-3.908,6.015,6.015,0,0,1,5.26,3.18.625.625,0,0,0,.663.391A4.389,4.389,0,0,1,29.5,17.508a.594.594,0,0,0,.357.343,3.324,3.324,0,0,1-.115,6.513,8.009,8.009,0,0,1-.806.072c-.336.01-.626-.127-.628-.488s.282-.471.625-.481a2.363,2.363,0,1,0,.361-4.711.644.644,0,0,1-.663-.616,3.421,3.421,0,0,0-4.2-2.849c-.469.093-.663-.121-.843-.5a5.091,5.091,0,0,0-4.942-3.139,5.163,5.163,0,0,0-4.818,3.626.816.816,0,0,1-.8.656,3.774,3.774,0,0,0-.77,7.334c.094.033.191.059.282.1.263.107.417.339.288.57a.681.681,0,0,1-.556.31,4.378,4.378,0,0,1-1.222-.477A4.627,4.627,0,0,1,8.714,19.669Z" transform="translate(-8.714 -10.681)" fill="url(#linear-gradient-2)"/>
        </g>
      </g>
      <g id="Grupo_30" data-name="Grupo 30" transform="translate(0 11.267)">
        <path id="Trazado_113" data-name="Trazado 113" d="M4.431,42.6A2.35,2.35,0,0,0,1.381,44a2.354,2.354,0,1,0,3.051-1.4Zm.251,2.609a1.161,1.161,0,1,1-2.167-.833,1.161,1.161,0,1,1,2.167.833Z" transform="translate(-0.276 -20.697)" fill="url(#linear-gradient-5)"/>
        <path id="Trazado_114" data-name="Trazado 114" d="M23.844,48.213a2.3,2.3,0,1,0,1.4,2.951A2.3,2.3,0,0,0,23.844,48.213Zm.307,2.55a1.136,1.136,0,1,1-2.137-.775,1.136,1.136,0,1,1,2.137.775Z" transform="translate(-4.617 -21.949)" fill="url(#linear-gradient-2)"/>
        <path id="Trazado_115" data-name="Trazado 115" d="M44.408,18.7l-4.1-1.059a6.1,6.1,0,0,0-3.095,0c-.932.165-1.49,1.313-2.737,2.828L32.9,22.357c-1.768-.63-20.345-6.181-25.635-7.817-.891-.275-2.148.482-2.382,2.113-.194,1.364-1.274,6.526-1.689,9.093a1.516,1.516,0,0,0,1.175,1.875c1.4.46,16.516,7.878,16.516,7.878.845.289,1.116.53,1.226.876.338,1.073.975,3.2-1.226,2.473-1.793-.593-16.953-5.309-19.361-6.306-1.4-.579-2.446,1.414-.292,2.181,0,0,14.345,4.378,15.65,4.708s4.061,1.357,4.85,1.455c2.117.262,3.262-2.348,2.253-4.45-.2-.426,9.635-12.015,13.429-16.314a1.62,1.62,0,0,1,1.541-.7l5.067.7C44.647,20.361,45.753,19.122,44.408,18.7ZM23.734,29.255,20.39,28.123l1.063-3.142L24.8,26.113Zm1.59-2.964,3.412,1.155-2.144,2.776-2.333-.789ZM9.85,21.054,13.2,22.188l-1.063,3.142L8.785,24.2ZM8.22,24,5.044,22.93c.222-1.115.46-2.274.668-3.276l3.571,1.208ZM17.3,22.934l-3.419-1.157,1.048-3.1c1.1.359,2.256.737,3.429,1.123Zm1.511-2.982c1.149.378,2.307.761,3.435,1.136l-1.069,3.159-3.427-1.16Zm-1.7,3.555L16.038,26.65l-3.418-1.157,1.064-3.142Zm-3.7-1.892L10.043,20.48l1.034-3.054c1,.324,2.14.7,3.366,1.1Zm-1.443,4.262-.938,2.771L7.763,27.216,8.6,24.742Zm.481.163L15.853,27.2,14.8,30.315l-3.316-1.461Zm2.811,4.431L16.3,27.349l3.426,1.16-1.171,3.462-3.71-1.634ZM16.488,26.8l1.063-3.142,3.426,1.16-1.063,3.142Zm5.159-2.395,1.07-3.162c1.17.39,2.3.768,3.347,1.122l-1.073,3.171ZM7.361,16.225c.284.091,1.456.469,3.147,1.017L9.477,20.288,5.836,19.056c.155-.749.282-1.369.359-1.756C6.391,16.3,6.744,16.027,7.361,16.225ZM4.8,24.176l.131-.675,3.1,1.05-.821,2.424-1.332-.586C4.936,25.97,4.5,25.752,4.8,24.176Zm17.346,9.375-3.126-1.377,1.186-3.5L23.549,29.8l-1.2,3.545.527.179,1.2-3.545,2.144.725-2.137,2.768C23.473,34.213,22.391,33.636,22.145,33.551Zm6.982-6.612-3.61-1.221,1.073-3.171c2.066.7,3.748,1.29,4.66,1.642Z" transform="translate(0 -14.485)" fill="url(#linear-gradient-2)"/>
      </g>
    </g>
  </g>
</svg>
