<svg xmlns="http://www.w3.org/2000/svg" width="56.601" height="38" viewBox="0 0 56.601 38">
  <g id="icon_sistemas" transform="translate(28.301 19)">
    <g id="icon_sistemas-2" data-name="icon_sistemas" transform="translate(-28.301 -19)">
      <path id="Trazado_67" data-name="Trazado 67" d="M8.7,17.4a8.7,8.7,0,1,1,8.7-8.7A8.708,8.708,0,0,1,8.7,17.4Zm0-14.764A6.066,6.066,0,1,0,14.765,8.7,6.073,6.073,0,0,0,8.7,2.633Z" fill="#f29888"/>
      <path id="Trazado_68" data-name="Trazado 68" d="M31.585,17.4a8.7,8.7,0,1,1,8.7-8.7A8.708,8.708,0,0,1,31.585,17.4Zm0-14.764A6.066,6.066,0,1,0,37.651,8.7,6.072,6.072,0,0,0,31.585,2.633Z" transform="translate(-3.347)" fill="#b25fac"/>
      <path id="Trazado_69" data-name="Trazado 69" d="M54.616,17.4a8.7,8.7,0,1,1,8.7-8.7A8.709,8.709,0,0,1,54.616,17.4Zm0-14.764A6.066,6.066,0,1,0,60.682,8.7,6.072,6.072,0,0,0,54.616,2.633Z" transform="translate(-6.714)" fill="#9085da"/>
      <path id="Trazado_70" data-name="Trazado 70" d="M8.7,41.528a8.7,8.7,0,1,1,8.7-8.7A8.708,8.708,0,0,1,8.7,41.528Zm0-14.764a6.066,6.066,0,1,0,6.066,6.065A6.072,6.072,0,0,0,8.7,26.764Z" transform="translate(0 -3.528)" fill="#88bc69"/>
      <path id="Trazado_71" data-name="Trazado 71" d="M31.585,41.528a8.7,8.7,0,1,1,8.7-8.7A8.709,8.709,0,0,1,31.585,41.528Zm0-14.764a6.066,6.066,0,1,0,6.066,6.065A6.072,6.072,0,0,0,31.585,26.764Z" transform="translate(-3.347 -3.528)" fill="#34c9b2"/>
      <path id="Trazado_72" data-name="Trazado 72" d="M54.616,41.528a8.7,8.7,0,1,1,8.7-8.7A8.709,8.709,0,0,1,54.616,41.528Zm0-14.764a6.066,6.066,0,1,0,6.066,6.065A6.072,6.072,0,0,0,54.616,26.764Z" transform="translate(-6.714 -3.528)" fill="#42a5cc"/>
    </g>
  </g>
</svg>
