<svg xmlns="http://www.w3.org/2000/svg" width="54.892" height="42" viewBox="0 0 54.892 42">
  <g id="icon_interconexion" transform="translate(27.446 21)">
    <g id="icon_interconexion-2" data-name="icon_interconexion" transform="translate(-27.446 -21)">
      <path id="Trazado_103" data-name="Trazado 103" d="M48.645,23.814,46.851,25.7,46.279,28,45.03,29.324,41.543,30.45l-3.487-1.821-2.124-2.677-1.4-4.322.22-4.3.769-.77-.985-1.468L31.28,13.331,28.875,9.3a9.856,9.856,0,0,0-3.24-1.829l-1.8,1.28L20.261,4.911l-2.92-1.425-7.2.207L2.019.176,0,.861S4.4,10,4.612,10.685a10.39,10.39,0,0,1-1.539.233l-.1.906,3.654,2.559.848,2.326,1.376,1.6L10.43,21,11.907,19.9l-.914-2.238-3.7-7.673L5.536,6.811l-.73-2.445,1.284.413L16.744,20.073l2.7,5.122-.4,2.137,8.794,6.328,7.628,2.805.932-.023A2.007,2.007,0,0,1,36.346,36a1.9,1.9,0,1,1,3.786-.182,1.712,1.712,0,0,1,0,.182,2,2,0,0,1-.035.361l2.049-.053,3.127,1.622.809-.848-.211-1.477,2.111-.154.91-1.649s-1.425-1.354-1.464-1.7h.04l1.988-.207,1.662-1.913,1.253.237,2.524-6.657a14.689,14.689,0,0,0-1.363-.879ZM20.235,8.465a2.973,2.973,0,1,1,0-.018Zm9.22,19.127a1.9,1.9,0,1,1,1.9-1.9A1.9,1.9,0,0,1,29.455,27.592ZM28.233,1.372H21.976V0h6.257Zm0,3.36H21.976V3.36h6.257ZM52.259,16.863H46V15.49h6.257Zm0,3.359H46V18.85h6.257Zm-46,11.212h6.257v1.372H6.261Zm0,3.36h6.257v1.372H6.261Zm20.653,2.48h6.257v1.372H26.914Zm0,3.355h6.257V42H26.914Z" fill="#824e80"/>
      <path id="Trazado_104" data-name="Trazado 104" d="M52.134,24.1a2.862,2.862,0,0,0-4.125,2.1l-12.4.105a2.957,2.957,0,0,0-4.129-2L22.545,11.924a2.96,2.96,0,1,0-2.594.725l-.361,15.83a2.955,2.955,0,1,0,3.518,2.309l7.228-2.045a2.95,2.95,0,0,0,3.795.862l5.355,5.518a2.968,2.968,0,1,0,4.692.831l5.36-6.767a2.854,2.854,0,1,0,2.6-5.083ZM18.65,9.753a1.895,1.895,0,1,1,1.9,1.89h0A1.9,1.9,0,0,1,18.65,9.753ZM29.765,26.984a2.935,2.935,0,0,0,.15.928L22.8,29.926a2.974,2.974,0,0,0-2.313-1.508l.361-15.728a2.874,2.874,0,0,0,.959-.255l8.9,12.4A2.961,2.961,0,0,0,29.765,26.984Zm2.968,1.9h0a1.9,1.9,0,1,1,1.9-1.9A1.9,1.9,0,0,1,32.728,28.88Zm10.685,8.393a1.891,1.891,0,0,1-1.891,1.89h0a1.895,1.895,0,1,1,1.9-1.895Zm.237-2.066a2.97,2.97,0,0,0-2.132-.906,2.923,2.923,0,0,0-1.2.255L34.919,28.98a2.933,2.933,0,0,0,.765-1.758l12.338-.105a2.886,2.886,0,0,0,.809,1.57Z" transform="translate(-3.273 -1.288)" fill="#1c7cbf"/>
    </g>
  </g>
</svg>
