<svg xmlns="http://www.w3.org/2000/svg" width="28.776" height="42" viewBox="0 0 28.776 42">
  <g id="icon_mesa-de-ayuda" transform="translate(14.388 21)">
    <g id="icon_mesa-de-ayuda-2" data-name="icon_mesa-de-ayuda" transform="translate(-14.388 -21)">
      <path id="Trazado_12" data-name="Trazado 12" d="M26.18,10.475a4.627,4.627,0,0,0-.571,9.218,4.76,4.76,0,0,1,.087,1.334c-.038,2.676-1.272,5.639-7.282,5.639a1.516,1.516,0,0,1-.226-.025V25.407H11.252v4.412h6.935v-.9c10.826.342,9.693-7.82,9.879-8.9a3.784,3.784,0,0,1,.358-.848,4.644,4.644,0,0,0-2.245-8.7Z" transform="translate(-2.024 -1.884)" fill="#824e80"/>
      <path id="Trazado_13" data-name="Trazado 13" d="M17.926,36.529a.832.832,0,0,0-.445-.166l-9.168-.585L7.95,31.232a.823.823,0,0,0-.3-.567L5.809,29.132,6.861,28.1a.824.824,0,0,0-.028-1.2l-1.5-1.331.684-2.223a.822.822,0,0,0-.308-.912L2.109,19.857,6.646,15.5a.824.824,0,0,0,.25-.526l.618-7.381L11.2,1.236A.824.824,0,1,0,9.779.409L6,6.925a.822.822,0,0,0-.107.345l-.609,7.255L.253,19.356a.824.824,0,0,0,.092,1.263l3.93,2.808L3.609,25.59a.822.822,0,0,0,.239.857l1.231,1.1L4,28.594a.823.823,0,0,0,.05,1.222L6.336,31.71l.392,4.91a.825.825,0,0,0,.768.756l9.631.613,5.055,3.842a.824.824,0,0,0,1-1.311Z" transform="translate(0 0)" fill="#1c7cbf"/>
    </g>
  </g>
</svg>
